<svg t="1699517890106" class="icon" viewBox="0 0 1024 1024" version="1.1" xmlns="http://www.w3.org/2000/svg" p-id="4998" width="48" height="48"><path d="M507.904 882.688c-18.432 0-33.28-14.848-33.28-33.28v-655.36c0-18.432 14.848-33.28 33.28-33.28s33.28 14.848 33.28 33.28v654.848c0 18.432-14.848 33.792-33.28 33.792z" fill="" p-id="4999"></path><path d="M787.968 502.784c-8.704 0-16.896-3.072-23.552-9.728L507.904 236.544 251.392 493.056c-12.8 12.8-34.304 12.8-47.104 0-12.8-12.8-12.8-34.304 0-47.104l280.064-280.064c6.144-6.144 14.848-9.728 23.552-9.728s17.408 3.584 23.552 9.728l280.064 280.064c12.8 12.8 12.8 34.304 0 47.104-6.656 6.656-15.36 9.728-23.552 9.728z" p-id="5000"></path></svg>