<svg t="1699410579723" class="icon" viewBox="0 0 1024 1024" version="1.1" xmlns="http://www.w3.org/2000/svg" p-id="8543" width="48" height="48"><path d="M512 2.56C231.424 2.56 3.584 229.888 3.584 510.976S231.424 1018.88 512 1018.88s508.416-227.328 508.416-508.416S793.088 2.56 512 2.56z m0 941.568c-239.616 0-433.664-194.048-433.664-433.664C78.336 270.848 272.384 76.8 512 76.8s433.664 194.048 433.664 433.664-194.048 433.664-433.664 433.664z" fill="#b8c5d8" p-id="8544"></path><path d="M502.784 546.816c-89.088 0-161.792-72.704-161.792-161.792s72.704-161.792 161.792-161.792 161.792 72.704 161.792 161.792-72.704 161.792-161.792 161.792z m0-285.184C434.688 261.632 378.88 316.928 378.88 385.536s55.296 123.904 123.904 123.904 123.904-55.296 123.904-123.904-55.296-123.904-123.904-123.904z" fill="#b8c5d8" p-id="8545"></path><path d="M756.736 797.696c-10.752 0-18.944-8.192-18.944-18.944 0-124.416-101.376-225.792-225.792-225.792s-225.792 101.376-225.792 225.792c0 10.752-8.192 18.944-18.944 18.944s-18.944-8.192-18.944-18.944c0-145.408 118.272-263.68 263.68-263.68s263.68 118.272 263.68 263.68c0 10.752-8.192 18.944-18.944 18.944z" fill="#b8c5d8" p-id="8546"></path></svg>